<svg xmlns="http://www.w3.org/2000/svg" version="1.1" width="538" height="473"><path d="M0 0 C1.1702623 0.00222061 2.3405246 0.00444122 3.54624939 0.00672913 C3.86819023 0.00665611 3.86819023 0.00665611 5.49740601 0.00628662 C7.63473327 0.00698567 9.77197438 0.01477761 11.9092865 0.02259827 C13.3875931 0.02446248 14.86590032 0.02588637 16.34420776 0.02688599 C20.24211827 0.03071093 24.13999174 0.040541 28.03788757 0.05158997 C32.01259358 0.0618046 35.98730554 0.06638372 39.96202087 0.07142639 C47.76607425 0.0821633 55.57009707 0.09923942 63.37413025 0.12025452 C61.96129302 3.73664736 60.37967738 7.02375481 58.4249115 10.38197327 C58.12842712 10.89340881 58.12842712 10.89340881 56.6280365 13.48158264 C55.98737244 14.57921936 55.34670837 15.67685608 54.68663025 16.80775452 C54.01179645 17.96965799 53.33732369 19.13177123 52.66319275 20.29408264 C51.26305935 22.70749491 49.86138006 25.11999911 48.45860291 27.53187561 C45.24921756 33.05292522 42.06287961 38.58727053 38.87413025 44.12025452 C37.62423845 46.2869836 36.3742381 48.45365007 35.12413025 50.62025452 C34.50538025 51.69275452 33.88663025 52.76525452 33.24913025 53.87025452 C31.37413025 57.12025452 29.49913025 60.37025452 27.62413025 63.62025452 C27.00529968 64.69291565 26.38646912 65.76557678 25.74888611 66.8707428 C24.49977507 69.03582522 23.25058896 71.20086434 22.00132751 73.36585999 C18.86210715 78.80641157 15.72422462 84.24772667 12.588974 89.69056702 C5.97190133 101.17474272 -0.67220952 112.64222345 -7.35877991 124.08607483 C-13.52506029 134.64645734 -19.63082925 145.24152217 -25.73475647 155.83802795 C-29.48614999 162.34896708 -33.24277969 168.85688646 -36.99842834 175.3653717 C-40.13769221 180.80610788 -43.27568472 186.24756929 -46.411026 191.69056702 C-53.02809867 203.17474272 -59.67220952 214.64222345 -66.35877991 226.08607483 C-73.16174598 237.73684637 -79.89229161 249.42929196 -86.62586975 261.12025452 C-94.50249564 274.79579766 -102.39707067 288.45986409 -110.35877991 302.08607483 C-116.52506029 312.64645734 -122.63082925 323.24152217 -128.73475647 333.83802795 C-132.48614999 340.34896708 -136.24277969 346.85688646 -139.99842834 353.3653717 C-143.13769221 358.80610788 -146.27568472 364.24756929 -149.411026 369.69056702 C-156.02809867 381.17474272 -162.67220952 392.64222345 -169.35877991 404.08607483 C-173.61569762 411.37647952 -177.84639881 418.68167656 -182.06336975 425.99525452 C-182.37069031 426.52812073 -182.37069031 426.52812073 -183.92591858 429.2247467 C-186.86301356 434.31974648 -189.79692073 439.41655202 -192.72473145 444.51689148 C-194.09093489 446.89622623 -195.45867231 449.27467734 -196.82658386 451.6530304 C-197.7871684 453.32465842 -198.74549154 454.9975853 -199.70375061 456.67054749 C-206.00625376 467.62743319 -206.00625376 467.62743319 -208.62586975 471.12025452 C-209.28586975 471.12025452 -209.94586975 471.12025452 -210.62586975 471.12025452 C-210.83155579 470.75899475 -210.83155579 470.75899475 -211.87245178 468.93080139 C-219.36528654 455.77731381 -226.87577202 442.63513094 -234.50086975 429.55775452 C-235.08884338 428.54841858 -235.67681702 427.53908264 -236.28260803 426.49916077 C-240.36956829 419.50470671 -240.36956829 419.50470671 -242.62586975 416.12025452 C-242.04532634 411.77129978 -239.56736783 408.13125015 -237.43836975 404.37025452 C-236.99839661 403.58585999 -236.55842346 402.80146545 -236.1051178 401.99330139 C-231.27603068 393.42527089 -226.2991832 384.94282211 -221.32899475 376.45619202 C-217.58952386 370.0674346 -213.88461941 363.65909376 -210.18836975 357.24525452 C-209.5661554 356.16566467 -208.94394104 355.08607483 -208.3028717 353.97377014 C-207.04075458 351.78342932 -205.7787919 349.59299949 -204.51698303 347.40248108 C-200.76427406 340.88925885 -197.0067696 334.37880097 -193.24891663 327.86854553 C-190.13145968 322.46692691 -187.01750618 317.06335061 -183.911026 311.65541077 C-174.94795194 296.0635681 -165.819391 280.57697914 -156.62586975 265.12025452 C-154.24817115 261.12184904 -151.87341407 257.12172017 -149.50086975 253.12025452 C-148.99281799 252.26721741 -148.48476624 251.4141803 -147.96131897 250.53529358 C-144.36912025 244.47383156 -140.97958337 238.3161989 -137.62586975 232.12025452 C-132.22303966 222.28500556 -126.57210203 212.60323508 -120.84413147 202.95448303 C-115.92297752 194.65330684 -111.09675306 186.29932539 -106.28358459 177.93519592 C-102.08910599 170.64891646 -97.86864143 163.37851025 -93.62586975 156.12025452 C-86.24159037 143.48289701 -78.93096779 130.80350046 -71.62586975 118.12025452 C-63.74924386 104.44471137 -55.85466883 90.78064494 -47.89295959 77.1544342 C-43.63604216 69.86403 -39.40526276 62.55887703 -35.18836975 55.24525452 C-34.57010315 54.17299622 -33.95183655 53.10073792 -33.31483459 51.99598694 C-30.09388609 46.40762873 -26.87639568 40.81729298 -23.661026 35.22572327 C-12.40369992 15.66104567 -12.40369992 15.66104567 -7.25086975 7.05775452 C-6.88751526 6.45036438 -6.52416077 5.84297424 -6.14979553 5.21717834 C-3.0868442 0.14136533 -3.0868442 0.14136533 0 0 Z " fill="#3BD0FD" transform="translate(472.62586975097656,-0.1202545166015625)"></path><path d="M0 0 C2.78408813 -0.36076355 2.78408813 -0.36076355 6.37744141 -0.34057617 C7.03122269 -0.34101425 7.68500397 -0.34145233 8.3585968 -0.34190369 C10.52322075 -0.33981081 12.6870736 -0.3164578 14.8515625 -0.29296875 C16.35085629 -0.28737453 17.85015556 -0.28310361 19.34945679 -0.28010559 C23.29845277 -0.26864298 27.24711852 -0.239164 31.19598389 -0.20599365 C35.22436047 -0.17532305 39.25279035 -0.16160672 43.28125 -0.14648438 C51.18765167 -0.11429532 59.09378477 -0.06308227 67 0 C62.32119256 8.88018555 57.54472532 17.66903673 52.4375 26.3125 C51.21685403 28.39157852 49.99682356 30.47101851 48.77734375 32.55078125 C48.15585449 33.60990723 47.53436523 34.6690332 46.89404297 35.76025391 C43.73772646 41.15910929 40.61961703 46.57988326 37.5 52 C32.69179129 60.34816168 27.86094197 68.6824339 23 77 C15.61585107 89.63743454 8.30509865 102.31675298 1 115 C-6.87662589 128.67554314 -14.77120092 142.33960958 -22.73291016 155.96582031 C-28.89919054 166.52620282 -35.0049595 177.12126766 -41.10888672 187.71777344 C-44.86028024 194.22871257 -48.61690994 200.73663194 -52.37255859 207.24511719 C-55.51182246 212.68585336 -58.64981497 218.12731477 -61.78515625 223.5703125 C-68.40222892 235.0544882 -75.04633977 246.52196894 -81.73291016 257.96582031 C-87.89919054 268.52620282 -94.0049595 279.12126766 -100.10888672 289.71777344 C-103.86028024 296.22871257 -107.61690994 302.73663194 -111.37255859 309.24511719 C-114.51182246 314.68585336 -117.64981497 320.12731477 -120.78515625 325.5703125 C-127.3912503 337.0354344 -134.02323959 348.48454351 -140.69995117 359.90869141 C-147.51491269 371.57789343 -154.25773253 383.28869565 -161 395 C-161.99 395 -162.98 395 -164 395 C-164.16024658 394.71447266 -164.16024658 394.71447266 -164.97119141 393.26953125 C-171.94358812 380.85881308 -178.98698512 368.49699498 -186.24072266 356.24804688 C-187.33136096 354.39482505 -188.40518625 352.53158074 -189.45996094 350.65771484 C-191 348 -191 348 -192.73535156 345.50244141 C-194.37262094 342.9318568 -195.41386594 340.99570165 -196 338 C-194.74494771 333.47921021 -192.32502059 329.88730496 -189.75 326 C-189.04011362 324.86478146 -188.33453466 323.7268592 -187.63305664 322.58642578 C-186.17231937 320.21903896 -184.69375046 317.86434192 -183.20166016 315.51660156 C-179.76607998 310.07526071 -176.61958741 304.46683988 -173.4375 298.875 C-172.18796068 296.7047133 -170.93666459 294.5354371 -169.68359375 292.3671875 C-169.37736084 291.83722168 -169.37736084 291.83722168 -167.82763672 289.15527344 C-164.32345469 283.10557419 -160.79411823 277.07057598 -157.26708984 271.03417969 C-151.10080946 260.47379718 -144.9950405 249.87873234 -138.89111328 239.28222656 C-135.13971976 232.77128743 -131.38309006 226.26336806 -127.62744141 219.75488281 C-124.48817754 214.31414664 -121.35018503 208.87268523 -118.21484375 203.4296875 C-111.60153798 191.95204938 -104.96248753 180.4903356 -98.27807617 169.05395508 C-93.90837124 161.57227582 -89.57401811 154.07066174 -85.25 146.5625 C-80.79331932 138.82567067 -76.31931136 131.10064101 -71.77856445 123.4128418 C-68.13885954 117.24866815 -64.53855233 111.06181526 -60.9375 104.875 C-57.00403107 98.11750209 -53.04829773 91.37687197 -49 84.6875 C-46.03171858 79.77877788 -43.21354387 74.80976585 -40.49609375 69.7578125 C-34.80350328 59.2644212 -28.67706461 49.00274175 -22.65332031 38.69775391 C-19.36397029 33.06652014 -16.08744341 27.4282461 -12.83203125 21.77734375 C-12.48937729 21.18259247 -12.14672333 20.58784119 -11.79368591 19.97506714 C-10.12694168 17.08103557 -8.46195713 14.18601063 -6.79858398 11.29003906 C-6.19989502 10.24944336 -5.60120605 9.20884766 -4.984375 8.13671875 C-4.45553711 7.21592529 -3.92669922 6.29513184 -3.38183594 5.34643555 C-2.31175189 3.52937233 -1.16972036 1.75458054 0 0 Z " fill="#3BD0FD" transform="translate(382,0)"></path><path d="M0 0 C0.48074982 -0.00803146 0.48074982 -0.00803146 2.91363525 -0.04867554 C7.31790487 -0.09312916 11.72202327 -0.13419924 16.12646484 -0.15722656 C18.44850696 -0.17377781 20.7704983 -0.20105657 23.09228516 -0.23925781 C26.44037305 -0.29406637 29.78726588 -0.31590847 33.13574219 -0.33056641 C34.17031555 -0.35323578 35.20488892 -0.37590515 36.27081299 -0.39926147 C44.32833877 -0.37568684 44.32833877 -0.37568684 47.84985352 2.36938477 C50.30455192 5.11941742 52.14542306 7.6715962 53.92871094 10.89208984 C54.55398682 12.00535645 55.1792627 13.11862305 55.82348633 14.265625 C56.48492358 15.47050727 57.1462989 16.67542353 57.80761719 17.88037109 C58.50996438 19.13812319 59.21368295 20.39511036 59.91870117 21.65136719 C61.36756007 24.23453049 62.81137193 26.82041539 64.25195312 29.40820312 C67.41724078 35.0801694 70.67610194 40.69795046 73.93261719 46.31787109 C75.17245003 48.46356027 76.41203315 50.60939377 77.65136719 52.75537109 C77.95751953 53.28517578 77.95751953 53.28517578 79.50683594 55.96630859 C81.39046769 59.22811117 83.2713404 62.49148953 85.15136719 65.75537109 C91.17451458 76.21000061 97.21534164 86.65335551 103.30761719 97.06787109 C108.72932896 106.33786887 114.07216634 115.65118862 119.38934326 124.98132324 C124.59056848 134.10569949 129.85039596 143.19419884 135.15356445 152.25976562 C141.3077846 162.78371734 147.39381715 173.34667247 153.47900391 183.91064453 C157.22744948 190.41646719 160.981059 196.91931192 164.73388672 203.42260742 C167.92340514 208.95024391 171.1111954 214.47886491 174.29589844 220.00927734 C174.94155762 221.12963379 175.5872168 222.24999023 176.25244141 223.40429688 C177.52519645 225.61399024 178.79639157 227.82458293 180.06591797 230.03613281 C182.82452089 234.83188052 185.60249307 239.60781615 188.49902344 244.32177734 C188.96783936 245.09126709 189.43665527 245.86075684 189.91967773 246.65356445 C190.7644513 248.03299301 191.62029058 249.40574816 192.49047852 250.76928711 C195.09076989 255.02878509 197.04110258 259.15657309 196.37011719 264.19287109 C194.75058372 268.09298761 192.56451409 271.59320706 190.37011719 275.19287109 C189.21470092 277.28656958 188.06904463 279.38568032 186.93261719 281.48974609 C185.74580611 283.64116794 184.55830076 285.79220694 183.37011719 287.94287109 C183.07492188 288.48492187 183.07492188 288.48492187 181.58105469 291.22802734 C173.2544643 306.24890295 173.2544643 306.24890295 166.93261719 308.31787109 C162.75629092 308.17133333 159.73425916 307.67055484 156.37011719 305.19287109 C153.60992454 301.5744804 151.52072379 297.63291305 149.37011719 293.63037109 C148.72130279 292.45942038 148.07030044 291.28967963 147.41723633 290.12109375 C146.0624167 287.69276151 144.71713889 285.25950746 143.37841797 282.82226562 C140.27390778 277.18839069 137.03459711 271.63216728 133.80761719 266.06787109 C132.55483897 263.89609649 131.30223407 261.72422189 130.04980469 259.55224609 C126.53093874 253.46225715 122.98404778 247.38890792 119.43261719 241.31787109 C114.01090541 232.04787332 108.66806803 222.73455357 103.35089111 213.40441895 C98.1496659 204.28004269 92.88983841 195.19154335 87.58666992 186.12597656 C81.43244977 175.60202485 75.34641723 165.03906972 69.26123047 154.47509766 C66.1333157 149.04627167 63.00153271 143.61967828 59.87011719 138.19287109 C58.6200984 136.02621527 57.3700984 133.8595486 56.12011719 131.69287109 C55.50136719 130.62037109 54.88261719 129.54787109 54.24511719 128.44287109 C42.37011719 107.85953776 30.49511719 87.27620443 18.62011719 66.69287109 C18.00048096 65.61884033 17.38084473 64.54480957 16.74243164 63.43823242 C15.50136465 61.28703885 14.26031625 59.13583455 13.01928711 56.98461914 C10.10513374 51.93324111 7.19079901 46.88196799 4.27578735 41.83108521 C3.24338241 40.04220191 2.21103762 38.25328392 1.17871094 36.46435547 C-0.11674229 34.21949473 -1.41230851 31.97469919 -2.70800781 29.72998047 C-3.85284745 27.74601112 -4.99611884 25.76113558 -6.13745117 23.77514648 C-7.05499259 22.18757318 -7.98103322 20.60483192 -8.92114258 19.03051758 C-11.43353695 14.79521097 -12.44370138 12.16620676 -11.62988281 7.19287109 C-8.58120759 2.18674389 -5.79586315 0.08790372 0 0 Z " fill="#00A8DB" transform="translate(13.6298828125,1.80712890625)"></path><path d="M0 0 C0.97751724 -0.00428513 1.95503448 -0.00857025 2.96217346 -0.01298523 C5.02563707 -0.01871779 7.08912089 -0.01923672 9.15258789 -0.01489258 C12.30194719 -0.01173325 15.45036615 -0.03520333 18.59960938 -0.06054688 C20.60807174 -0.0628201 22.61653661 -0.06352325 24.625 -0.0625 C25.56266708 -0.07170975 26.50033417 -0.08091949 27.46641541 -0.09040833 C32.66981482 -0.05375862 36.43470294 0.28794995 40.87890625 3.30078125 C42.54882812 5.15600586 42.54882812 5.15600586 43.84765625 7.265625 C44.34394531 8.06468262 44.84023437 8.86374023 45.3515625 9.68701172 C48.09269121 14.37795225 50.76034199 19.10283403 53.37890625 23.86328125 C58.10296609 32.37514043 62.89392264 40.83954237 67.81640625 49.23828125 C72.67815301 57.53465421 77.51517387 65.84421262 82.31640625 74.17578125 C82.93894287 75.25593506 83.56147949 76.33608887 84.20288086 77.44897461 C85.46467451 79.63874459 86.72631159 81.8286048 87.98779297 84.01855469 C91.11570773 89.44738067 94.24749073 94.87397406 97.37890625 100.30078125 C98.62892504 102.46743708 99.87892503 104.63410375 101.12890625 106.80078125 C101.74765625 107.87328125 102.36640625 108.94578125 103.00390625 110.05078125 C108.62890625 119.80078125 108.62890625 119.80078125 110.50488281 123.05249023 C111.75160881 125.21347113 112.99835352 127.37444123 114.24511719 129.53540039 C117.42036508 135.03896976 120.5952612 140.54274157 123.76953125 146.046875 C124.41011475 147.15699951 125.05069824 148.26712402 125.71069336 149.41088867 C126.97647124 151.6065469 128.24034732 153.80330274 129.50219727 156.0012207 C132.37608 161.00095785 135.27415698 165.97972496 138.265625 170.91015625 C138.78350586 171.77326416 139.30138672 172.63637207 139.83496094 173.52563477 C140.78769517 175.10939056 141.75229099 176.68610294 142.73144531 178.25366211 C145.4375869 182.77900166 146.86683406 185.91516334 145.87890625 191.30078125 C144.03545589 195.4492182 141.80095875 199.32660613 139.50390625 203.23828125 C138.868479 204.34115479 138.23305176 205.44402832 137.57836914 206.58032227 C135.69562725 209.83082147 133.78977872 213.06676119 131.87890625 216.30078125 C131.36279785 217.18894531 130.84668945 218.07710937 130.31494141 218.9921875 C128.99962106 221.25194503 127.66446802 223.49794104 126.31640625 225.73828125 C125.93629395 226.38724365 125.55618164 227.03620605 125.16455078 227.70483398 C122.87851472 231.39622008 121.15276256 233.28801909 116.87890625 234.30078125 C114.81640625 234.453125 114.81640625 234.453125 112.87890625 234.23828125 C112.23953125 234.18542969 111.60015625 234.13257813 110.94140625 234.078125 C104.98731633 231.8340646 102.22984984 225.78591167 99.44140625 220.48828125 C98.56365419 218.86585622 97.68330597 217.24483387 96.80078125 215.625 C96.33091797 214.76181152 95.86105469 213.89862305 95.37695312 213.00927734 C92.73092266 208.22520597 89.9582121 203.51569942 87.19140625 198.80078125 C82.24655035 190.35849247 77.32661736 181.90274077 72.44140625 173.42578125 C71.81919189 172.34619141 71.19697754 171.26660156 70.5559082 170.15429688 C69.29379108 167.96395605 68.0318284 165.77352623 66.77001953 163.58300781 C63.64210477 158.15418183 60.51032177 152.72758844 57.37890625 147.30078125 C56.12888746 145.13412542 54.87888747 142.96745875 53.62890625 140.80078125 C53.01015625 139.72828125 52.39140625 138.65578125 51.75390625 137.55078125 C39.87890625 116.96744792 28.00390625 96.38411458 16.12890625 75.80078125 C15.50967285 74.72747559 14.89043945 73.65416992 14.25244141 72.54833984 C13.00721141 70.38987627 11.76209353 68.23134802 10.51708984 66.07275391 C6.66382344 59.39234624 2.80617554 52.71449132 -1.05444336 46.03833008 C-2.94449895 42.76513308 -4.82817733 39.48833483 -6.7109375 36.2109375 C-8.80023493 32.57633961 -10.91280107 28.95854278 -13.0625 25.359375 C-13.49127441 24.62992676 -13.92004883 23.90047852 -14.36181641 23.14892578 C-15.12409957 21.85232909 -15.897406 20.56210554 -16.68505859 19.28076172 C-19.08338002 15.15640238 -19.59877933 12.03214322 -19.12109375 7.30078125 C-14.53662336 -0.34000274 -8.06919566 -0.00782632 0 0 Z " fill="#00A7DB" transform="translate(107.12109375,0.69921875)"></path></svg>